<?xml version="1.0" encoding="UTF-8" standalone="yes"?>
<svg width="96" height="96" viewBox="0 0 96 96" fill="none" version="1.2" baseProfile="tiny-ps" xmlns="http://www.w3.org/2000/svg">
  <title>Shaper GAP®</title>
  <g>
    <rect width="96" height="96" fill="white"/>
    <rect width="96" height="96" fill="url(#paint0_linear_1329_13773)"/>
    <path d="M65.1044 65.5409C65.1044 68.178 64.7572 70.5069 64.0632 72.5274C63.7474 73.4521 63.0847 75.1645 61.6646 76.911C58.4777 80.781 53.9964 81.466 51.693 81.8087C50.0519 82.0484 48.6636 82.0484 47.7168 82.0138C42.0051 82.0138 36.2617 82.0138 30.5499 82.0138C29.5719 82.0138 24.5544 81.8429 20.5152 77.4247C16.476 73.0069 16.3498 67.5613 16.3498 66.4998V30.5054C16.3498 29.8887 16.3498 29.2725 16.2866 28.6901C16.1604 26.8749 16.192 21.5665 20.0734 17.5253C23.513 13.9293 27.7416 13.7238 29.477 13.7923C30.2976 13.8265 31.6228 13.8608 32.4434 13.8608H34.4317C35.0312 13.8608 35.2836 14.717 34.7789 15.0937C33.8952 15.7102 32.8854 16.6006 31.97 17.8335C30.5499 19.7514 29.9191 21.7035 29.6667 22.9022C29.6036 23.142 29.4457 23.3132 29.2564 23.3817C28.6252 23.5872 27.5838 23.9981 26.6687 25.0256C26.4794 25.2311 25.722 26.1215 25.3118 27.5599C25.1224 28.2449 25.0593 28.8614 25.0593 29.2725V66.4998C25.0593 69.8219 27.5523 72.5274 30.6134 72.5274H33.7691C38.8808 72.5274 43.9617 72.4932 49.0739 72.459C54.5015 72.459 56.2688 69.4792 56.2688 65.3695C56.2688 62.5611 55.5113 60.4723 53.0814 58.28L51.3141 56.7391C50.6201 56.1228 50.0519 55.4378 49.6416 54.7186C49.6416 54.7186 49.6416 54.7186 49.6416 54.6844C49.5155 54.4789 49.421 54.2733 49.3262 54.102C49.3262 54.0336 49.2631 53.9994 49.2631 53.9306C49.0421 53.3828 48.9159 52.7665 48.9159 52.1157C48.9159 50.0265 50.1781 48.2458 51.9454 47.6291C52.0085 47.6291 52.0716 47.5949 52.1664 47.5607C52.2295 47.5607 52.2608 47.5607 52.3239 47.5266C52.387 47.5266 52.4501 47.5266 52.5132 47.4924C52.608 47.4924 52.6711 47.4924 52.7659 47.4578C52.8604 47.4578 52.9235 47.4578 53.0183 47.4578C53.0814 47.4578 53.1762 47.4578 53.2393 47.4578H53.2706C54.3435 47.4578 55.3534 47.8347 56.3001 48.6223L58.0674 50.1636C62.0749 53.6909 65.2623 57.7664 65.2623 65.5751L65.1044 65.5409Z" fill="#343434"/>
    <path d="M30.897 30.2327C30.897 27.5954 31.2442 25.2665 31.9382 23.2459C32.2541 22.3212 32.9167 20.6088 34.3368 18.8622C37.5238 14.9922 42.005 14.3072 44.3084 13.9647C45.9495 13.725 47.3378 13.725 48.2846 13.7592C53.9963 13.7592 59.7397 13.7592 65.4515 13.7592C66.4295 13.7592 71.4469 13.9305 75.4862 18.3485C79.5254 22.7664 79.6516 28.2119 79.6516 29.2737V65.2682C79.6516 65.8844 79.6516 66.5011 79.7147 67.0831C79.8409 68.8984 79.8095 74.2068 75.9282 78.2481C72.4885 81.8441 68.2599 82.0496 66.5244 81.9809C65.7038 81.9467 64.3782 81.9125 63.558 81.9125H61.5697C60.9702 81.9125 60.7178 81.0561 61.2225 80.6796C62.1062 80.063 63.116 79.1728 64.0314 77.94C65.4515 76.0221 66.0824 74.0696 66.3347 72.8709C66.3978 72.6312 66.5557 72.4602 66.745 72.3915C67.3763 72.1863 68.4174 71.7752 69.3328 70.7479C69.5221 70.5424 70.2795 69.6518 70.6898 68.2134C70.8791 67.5284 70.9422 66.9121 70.9422 66.5011V29.2737C70.9422 25.9515 68.4492 23.2459 65.388 23.2459H62.2323C57.1206 23.2459 52.0397 23.2801 46.9276 23.3144C41.4999 23.3144 39.7327 26.294 39.7327 30.4036C39.7327 33.2121 40.4901 35.3013 42.92 37.4931L44.6873 39.0341C45.3813 39.6507 45.9495 40.3357 46.3598 41.0549C46.3598 41.0549 46.3598 41.0549 46.3598 41.0891C46.4859 41.2947 46.5804 41.5002 46.6752 41.6712C46.6752 41.74 46.7383 41.7741 46.7383 41.8425C46.9593 42.3904 47.0855 43.007 47.0855 43.6578C47.0855 45.7467 45.8233 47.5278 44.056 48.144C43.9929 48.144 43.9299 48.1782 43.835 48.2128C43.7719 48.2128 43.7406 48.2128 43.6775 48.247C43.6144 48.247 43.5513 48.247 43.4878 48.2812C43.3934 48.2812 43.3303 48.2812 43.2355 48.3154C43.141 48.3154 43.078 48.3154 42.9831 48.3154C42.92 48.3154 42.8252 48.3154 42.7621 48.3154H42.7308C41.6579 48.3154 40.648 47.9385 39.7013 47.1509L37.934 45.6099C33.9265 42.0823 30.7391 38.0068 30.7391 30.1981L30.897 30.2327Z" fill="#343434"/>
  </g>
  <defs>
    <linearGradient id="paint0_linear_1329_13773" x1="96" y1="0" x2="0" y2="96" gradientUnits="userSpaceOnUse"/>
  </defs>
</svg>