<svg xmlns="http://www.w3.org/2000/svg" width="34" height="32" viewBox="0 0 34 32" fill="none">
<g filter="url(#filter0_b_771_20978)">
<path d="M25.6446 24.2729C25.6446 25.5087 25.4692 26.6 25.1183 27.5469C24.9588 27.9802 24.6239 28.7826 23.9062 29.6011C22.2954 31.4146 20.0308 31.7356 18.8666 31.8961C18.0373 32.0085 17.3355 32.0085 16.8571 31.9924C13.9705 31.9924 11.0679 31.9924 8.18122 31.9924C7.68683 31.9924 5.15105 31.9122 3.10967 29.8419C1.06829 27.7716 1.0045 25.2198 1.0045 24.7223V7.85492C1.0045 7.56604 1.0045 7.27715 0.972602 7.00431C0.908809 6.15372 0.924759 3.66616 2.8864 1.77239C4.62476 0.0872619 6.76183 -0.00903779 7.63898 0.0230599C8.05364 0.0391088 8.72346 0.0551645 9.13812 0.0551645H10.1429C10.4459 0.0551645 10.5735 0.456387 10.3183 0.632925C9.87174 0.921804 9.3614 1.33907 8.8989 1.91683C8.18122 2.81556 7.86226 3.73035 7.73467 4.29206C7.70278 4.40441 7.62303 4.48465 7.52734 4.51675C7.20838 4.61304 6.68209 4.80562 6.21959 5.28709C6.1239 5.38338 5.74114 5.80066 5.53381 6.47471C5.43812 6.79569 5.40622 7.08457 5.40622 7.27715V24.7223C5.40622 26.279 6.66614 27.5469 8.21312 27.5469H9.80795C12.3916 27.5469 14.9592 27.5308 17.5429 27.5148C20.286 27.5148 21.1791 26.1185 21.1791 24.1927C21.1791 22.8767 20.7963 21.8977 19.5683 20.8705L18.6752 20.1483C18.3243 19.8595 18.0373 19.5385 17.8299 19.2015C17.8299 19.2015 17.8299 19.2015 17.8299 19.1854C17.7661 19.0891 17.7183 18.9928 17.6704 18.9126C17.6704 18.8805 17.6385 18.8644 17.6385 18.8323C17.5269 18.5756 17.4631 18.2867 17.4631 17.9817C17.4631 17.0028 18.101 16.1682 18.9942 15.8793C19.026 15.8793 19.0579 15.8633 19.1058 15.8472C19.1377 15.8472 19.1536 15.8472 19.1855 15.8312C19.2174 15.8312 19.2493 15.8312 19.2812 15.8152C19.3291 15.8152 19.361 15.8151 19.4088 15.7991C19.4567 15.7991 19.4886 15.7991 19.5364 15.7991C19.5683 15.7991 19.6161 15.7991 19.648 15.7991H19.664C20.2062 15.7991 20.7166 15.9756 21.195 16.3448L22.0881 17.067C24.1136 18.72 25.7243 20.6298 25.7243 24.289L25.6446 24.2729Z" fill="#5B527C" fill-opacity="0.3"/>
<path d="M8.35562 7.72711C8.35562 6.49135 8.53105 5.40002 8.88191 4.45314C9.04139 4.01982 9.37631 3.21738 10.094 2.39889C11.7048 0.585363 13.9694 0.264385 15.1336 0.103897C15.9629 -0.00844538 16.6647 -0.00845371 17.1431 0.00759516C20.0298 0.00759516 22.9323 0.00759516 25.819 0.00759516C26.3134 0.00759516 28.8491 0.0878459 30.8905 2.15815C32.9319 4.22845 32.9957 6.78023 32.9957 7.27774V24.1451C32.9957 24.434 32.9957 24.7229 33.0276 24.9957C33.0914 25.8463 33.0754 28.3339 31.1138 30.2276C29.3754 31.9127 27.2384 32.009 26.3612 31.977C25.9466 31.9609 25.2767 31.9448 24.8621 31.9448H23.8573C23.5543 31.9448 23.4267 31.5436 23.6819 31.3671C24.1285 31.0782 24.6388 30.6609 25.1013 30.0832C25.819 29.1844 26.1379 28.2697 26.2655 27.7079C26.2974 27.5956 26.3772 27.5154 26.4729 27.4833C26.7918 27.387 27.3181 27.1944 27.7806 26.7129C27.8763 26.6166 28.2591 26.1994 28.4664 25.5253C28.5621 25.2043 28.594 24.9154 28.594 24.7229V7.27774C28.594 5.721 27.3341 4.45314 25.7871 4.45314H24.1923C21.6086 4.45314 19.041 4.46918 16.4573 4.48523C13.7142 4.48523 12.8211 5.88148 12.8211 7.80735C12.8211 9.12335 13.2039 10.1023 14.4319 11.1295L15.325 11.8517C15.6759 12.1405 15.9629 12.4615 16.1703 12.7985C16.1703 12.7985 16.1703 12.7985 16.1703 12.8146C16.2341 12.9109 16.2819 13.0072 16.3298 13.0874C16.3298 13.1195 16.3616 13.1356 16.3616 13.1677C16.4733 13.4245 16.5371 13.7133 16.5371 14.0183C16.5371 14.9972 15.8991 15.8318 15.006 16.1207C14.9741 16.1207 14.9423 16.1367 14.8944 16.1528C14.8625 16.1528 14.8466 16.1528 14.8147 16.1688C14.7828 16.1688 14.7509 16.1688 14.719 16.1849C14.6711 16.1849 14.6392 16.1849 14.5914 16.2009C14.5435 16.2009 14.5117 16.2009 14.4638 16.2009C14.4319 16.2009 14.3841 16.2009 14.3522 16.2009H14.3362C13.794 16.2009 13.2836 16.0244 12.8052 15.6552L11.9121 14.933C9.88665 13.28 8.27588 11.3702 8.27588 7.71106L8.35562 7.72711Z" fill="#5B527C" fill-opacity="0.3"/>
</g>
<defs>
<filter id="filter0_b_771_20978" x="-41.0444" y="-42" width="116.089" height="116" filterUnits="userSpaceOnUse" color-interpolation-filters="sRGB">
<feFlood flood-opacity="0" result="BackgroundImageFix"/>
<feGaussianBlur in="BackgroundImageFix" stdDeviation="21"/>
<feComposite in2="SourceAlpha" operator="in" result="effect1_backgroundBlur_771_20978"/>
<feBlend mode="normal" in="SourceGraphic" in2="effect1_backgroundBlur_771_20978" result="shape"/>
</filter>
</defs>
</svg>