<svg width="54" height="54" viewBox="0 0 54 54" fill="none" xmlns="http://www.w3.org/2000/svg">
<g filter="url(#filter0_b_2339_21099)">
<path d="M41.5467 40.9585C41.5467 43.0439 41.2515 44.8855 40.6611 46.4833C40.3927 47.2146 39.8291 48.5687 38.6214 49.9499C35.9107 53.0102 32.0997 53.5519 30.1405 53.8227C28.745 54.0123 27.5641 54.0122 26.759 53.9852C21.9013 53.9852 17.0168 53.9852 12.1591 53.9852C11.3271 53.9852 7.05986 53.8498 3.6246 50.3561C0.189331 46.8625 0.0819796 42.5564 0.0819796 41.7168V13.2532C0.0819796 12.7657 0.0819784 12.2782 0.0283024 11.8178C-0.0790497 10.3824 -0.0522096 6.18463 3.24887 2.9889C6.17421 0.14524 9.7705 -0.0172654 11.2466 0.0368995C11.9444 0.063982 13.0716 0.091076 13.7694 0.091076H15.4602C15.9701 0.091076 16.1848 0.768139 15.7554 1.06605C15.0039 1.55353 14.1451 2.25766 13.3668 3.23263C12.1591 4.74925 11.6223 6.29296 11.4076 7.24084C11.3539 7.43042 11.2198 7.56583 11.0587 7.62C10.522 7.78249 9.63631 8.10747 8.85801 8.91994C8.69698 9.08244 8.05287 9.7866 7.70397 10.9241C7.54295 11.4657 7.48927 11.9532 7.48927 12.2782V41.7168C7.48927 44.3438 9.60947 46.4833 12.2128 46.4833H14.8966C19.2443 46.4833 23.5652 46.4563 27.913 46.4292C32.5291 46.4292 34.0321 44.073 34.0321 40.8231C34.0321 38.6023 33.3879 36.9503 31.3214 35.217L29.8185 33.9983C29.2281 33.5108 28.745 32.9692 28.3961 32.4005C28.3961 32.4005 28.3961 32.4005 28.3961 32.3734C28.2887 32.2109 28.2082 32.0484 28.1277 31.913C28.1277 31.8588 28.074 31.8317 28.074 31.7776C27.8862 31.3442 27.7788 30.8568 27.7788 30.3422C27.7788 28.6902 28.8523 27.2819 30.3553 26.7944C30.4089 26.7944 30.4626 26.7673 30.5431 26.7402C30.5968 26.7402 30.6236 26.7402 30.6773 26.7131C30.731 26.7131 30.7847 26.7131 30.8383 26.6861C30.9188 26.6861 30.9725 26.6861 31.053 26.659C31.1336 26.659 31.1872 26.659 31.2678 26.659C31.3214 26.659 31.4019 26.659 31.4556 26.659H31.4824C32.3949 26.659 33.2538 26.9569 34.0589 27.5798L35.5618 28.7985C38.9703 31.588 41.6809 34.8108 41.6809 40.9856L41.5467 40.9585Z" fill="white"/>
<path d="M12.4529 13.0385C12.4529 10.9532 12.7481 9.11156 13.3386 7.51369C13.6069 6.78247 14.1705 5.42835 15.3783 4.04714C18.0889 0.986824 21.8999 0.445174 23.8591 0.174349C25.2546 -0.0152281 26.4355 -0.0152422 27.2407 0.0118403C32.0983 0.0118403 36.9828 0.0118403 41.8405 0.0118403C42.6725 0.0118403 46.9397 0.147263 50.375 3.6409C53.8103 7.13454 53.9176 11.4407 53.9176 12.2802V40.7439C53.9176 41.2314 53.9176 41.7189 53.9713 42.1793C54.0787 43.6146 54.0518 47.8124 50.7507 51.0081C47.8254 53.8518 44.2291 54.0143 42.753 53.9601C42.0552 53.933 40.928 53.9059 40.2302 53.9059H38.5395C38.0295 53.9059 37.8148 53.2289 38.2442 52.931C38.9957 52.4435 39.8545 51.7394 40.6328 50.7644C41.8405 49.2478 42.3773 47.7041 42.592 46.7562C42.6457 46.5666 42.7799 46.4312 42.9409 46.377C43.4777 46.2145 44.3633 45.8896 45.1416 45.0771C45.3026 44.9146 45.9468 44.2104 46.2956 43.073C46.4567 42.5313 46.5104 42.0438 46.5104 41.7188V12.2802C46.5104 9.65322 44.3901 7.51369 41.7869 7.51369H39.1031C34.7553 7.51369 30.4344 7.54077 26.0866 7.56785C21.4705 7.56785 19.9676 9.92402 19.9676 13.1739C19.9676 15.3947 20.6117 17.0467 22.6782 18.78L24.1811 19.9987C24.7716 20.4862 25.2546 21.0278 25.6035 21.5966C25.6035 21.5966 25.6035 21.5966 25.6035 21.6237C25.7109 21.7862 25.7914 21.9486 25.8719 22.0841C25.8719 22.1382 25.9256 22.1653 25.9256 22.2195C26.1135 22.6528 26.2208 23.1403 26.2208 23.6548C26.2208 25.3069 25.1473 26.7152 23.6444 27.2026C23.5907 27.2026 23.537 27.2297 23.4565 27.2568C23.4028 27.2568 23.376 27.2568 23.3223 27.2839C23.2686 27.2839 23.2149 27.2839 23.1613 27.311C23.0808 27.311 23.0271 27.311 22.9466 27.3381C22.8661 27.3381 22.8124 27.3381 22.7319 27.3381C22.6782 27.3381 22.5977 27.3381 22.544 27.3381H22.5172C21.6047 27.3381 20.7459 27.0401 19.9407 26.4172L18.4378 25.1985C15.0294 22.409 12.3187 19.1862 12.3187 13.0114L12.4529 13.0385Z" fill="white"/>
</g>
<defs>
<filter id="filter0_b_2339_21099" x="-189" y="-189.001" width="432" height="431.999" filterUnits="userSpaceOnUse" color-interpolation-filters="sRGB">
<feFlood flood-opacity="0" result="BackgroundImageFix"/>
<feGaussianBlur in="BackgroundImageFix" stdDeviation="94.5"/>
<feComposite in2="SourceAlpha" operator="in" result="effect1_backgroundBlur_2339_21099"/>
<feBlend mode="normal" in="SourceGraphic" in2="effect1_backgroundBlur_2339_21099" result="shape"/>
</filter>
</defs>
</svg>
